<?xml version="1.0" encoding="UTF-8" standalone="no"?>
<!DOCTYPE svg PUBLIC "-//W3C//DTD SVG 1.1//EN"
 "http://www.w3.org/Graphics/SVG/1.1/DTD/svg11.dtd">
<!-- Generated by graphviz version 2.47.3 (20210619.1520)
 -->
<!-- Title: dependencies Pages: 1 -->
<svg width="2783pt" height="247pt"
 viewBox="0.00 0.00 2783.00 246.80" xmlns="http://www.w3.org/2000/svg" xmlns:xlink="http://www.w3.org/1999/xlink">
<g id="graph0" class="graph" transform="scale(1 1) rotate(0) translate(4 242.8)">
<title>dependencies</title>
<polygon fill="white" stroke="transparent" points="-4,4 -4,-242.8 2779,-242.8 2779,4 -4,4"/>
<text text-anchor="middle" x="1387.5" y="-8.2" font-family="sans-serif" font-size="14.00">dependencies</text>
<g id="clust1" class="cluster">
<title>cluster_AppModule</title>
<polygon fill="none" stroke="black" stroke-dasharray="1,5" points="8,-32.8 8,-230.8 2767,-230.8 2767,-32.8 8,-32.8"/>
</g>
<g id="clust20" class="cluster">
<title>cluster_AppModule_imports</title>
<polygon fill="none" stroke="black" points="2615,-40.8 2615,-92.8 2759,-92.8 2759,-40.8 2615,-40.8"/>
</g>
<g id="clust22" class="cluster">
<title>cluster_AppModule_bootstrap</title>
<polygon fill="none" stroke="black" points="1421,-170.8 1421,-222.8 1545,-222.8 1545,-170.8 1421,-170.8"/>
</g>
<g id="clust2" class="cluster">
<title>cluster_AppModule_declarations</title>
<polygon fill="none" stroke="black" points="16,-40.8 16,-92.8 2607,-92.8 2607,-40.8 16,-40.8"/>
</g>
<!-- AlertasComponent -->
<g id="node1" class="node">
<title>AlertasComponent</title>
<polygon fill="#ffffb3" stroke="black" points="2598.75,-84.8 2477.25,-84.8 2477.25,-48.8 2598.75,-48.8 2598.75,-84.8"/>
<text text-anchor="middle" x="2538" y="-62.6" font-family="Times,serif" font-size="14.00">AlertasComponent</text>
</g>
<!-- AppModule -->
<g id="node18" class="node">
<title>AppModule</title>
<polygon fill="#8dd3c7" stroke="black" points="1524.66,-149.8 1521.66,-153.8 1500.66,-153.8 1497.66,-149.8 1441.34,-149.8 1441.34,-113.8 1524.66,-113.8 1524.66,-149.8"/>
<text text-anchor="middle" x="1483" y="-127.6" font-family="Times,serif" font-size="14.00">AppModule</text>
</g>
<!-- AlertasComponent&#45;&gt;AppModule -->
<g id="edge1" class="edge">
<title>AlertasComponent&#45;&gt;AppModule</title>
<path fill="none" stroke="black" d="M2538,-84.96C2538,-107.15 2538,-141.8 2538,-141.8 2538,-141.8 1534.68,-141.8 1534.68,-141.8"/>
<polygon fill="black" stroke="black" points="1534.68,-138.3 1524.68,-141.8 1534.68,-145.3 1534.68,-138.3"/>
</g>
<!-- AppComponent -->
<g id="node2" class="node">
<title>AppComponent</title>
<polygon fill="#ffffb3" stroke="black" points="2458.94,-84.8 2353.06,-84.8 2353.06,-48.8 2458.94,-48.8 2458.94,-84.8"/>
<text text-anchor="middle" x="2406" y="-62.6" font-family="Times,serif" font-size="14.00">AppComponent</text>
</g>
<!-- AppComponent&#45;&gt;AppModule -->
<g id="edge2" class="edge">
<title>AppComponent&#45;&gt;AppModule</title>
<path fill="none" stroke="black" d="M2406,-85.08C2406,-106.12 2406,-137.8 2406,-137.8 2406,-137.8 1534.75,-137.8 1534.75,-137.8"/>
<polygon fill="black" stroke="black" points="1534.75,-134.3 1524.75,-137.8 1534.75,-141.3 1534.75,-134.3"/>
</g>
<!-- CadastroComponent -->
<g id="node3" class="node">
<title>CadastroComponent</title>
<polygon fill="#ffffb3" stroke="black" points="2335.59,-84.8 2204.41,-84.8 2204.41,-48.8 2335.59,-48.8 2335.59,-84.8"/>
<text text-anchor="middle" x="2270" y="-62.6" font-family="Times,serif" font-size="14.00">CadastroComponent</text>
</g>
<!-- CadastroComponent&#45;&gt;AppModule -->
<g id="edge3" class="edge">
<title>CadastroComponent&#45;&gt;AppModule</title>
<path fill="none" stroke="black" d="M2270,-85.11C2270,-104.95 2270,-133.8 2270,-133.8 2270,-133.8 1534.76,-133.8 1534.76,-133.8"/>
<polygon fill="black" stroke="black" points="1534.76,-130.3 1524.76,-133.8 1534.76,-137.3 1534.76,-130.3"/>
</g>
<!-- ChatAlunoComponent -->
<g id="node4" class="node">
<title>ChatAlunoComponent</title>
<polygon fill="#ffffb3" stroke="black" points="2186.27,-84.8 2043.73,-84.8 2043.73,-48.8 2186.27,-48.8 2186.27,-84.8"/>
<text text-anchor="middle" x="2115" y="-62.6" font-family="Times,serif" font-size="14.00">ChatAlunoComponent</text>
</g>
<!-- ChatAlunoComponent&#45;&gt;AppModule -->
<g id="edge4" class="edge">
<title>ChatAlunoComponent&#45;&gt;AppModule</title>
<path fill="none" stroke="black" d="M2115,-85.02C2115,-103.63 2115,-129.8 2115,-129.8 2115,-129.8 1534.96,-129.8 1534.96,-129.8"/>
<polygon fill="black" stroke="black" points="1534.96,-126.3 1524.96,-129.8 1534.96,-133.3 1534.96,-126.3"/>
</g>
<!-- ChatProfComponent -->
<g id="node5" class="node">
<title>ChatProfComponent</title>
<polygon fill="#ffffb3" stroke="black" points="2025.88,-84.8 1894.12,-84.8 1894.12,-48.8 2025.88,-48.8 2025.88,-84.8"/>
<text text-anchor="middle" x="1960" y="-62.6" font-family="Times,serif" font-size="14.00">ChatProfComponent</text>
</g>
<!-- ChatProfComponent&#45;&gt;AppModule -->
<g id="edge5" class="edge">
<title>ChatProfComponent&#45;&gt;AppModule</title>
<path fill="none" stroke="black" d="M1960,-84.82C1960,-102.17 1960,-125.8 1960,-125.8 1960,-125.8 1534.91,-125.8 1534.91,-125.8"/>
<polygon fill="black" stroke="black" points="1534.91,-122.3 1524.91,-125.8 1534.91,-129.3 1534.91,-122.3"/>
</g>
<!-- FeedComponent -->
<g id="node6" class="node">
<title>FeedComponent</title>
<polygon fill="#ffffb3" stroke="black" points="1876.05,-84.8 1767.95,-84.8 1767.95,-48.8 1876.05,-48.8 1876.05,-84.8"/>
<text text-anchor="middle" x="1822" y="-62.6" font-family="Times,serif" font-size="14.00">FeedComponent</text>
</g>
<!-- FeedComponent&#45;&gt;AppModule -->
<g id="edge6" class="edge">
<title>FeedComponent&#45;&gt;AppModule</title>
<path fill="none" stroke="black" d="M1822,-84.81C1822,-100.85 1822,-121.8 1822,-121.8 1822,-121.8 1534.91,-121.8 1534.91,-121.8"/>
<polygon fill="black" stroke="black" points="1534.91,-118.3 1524.91,-121.8 1534.91,-125.3 1534.91,-118.3"/>
</g>
<!-- InicioComponent -->
<g id="node7" class="node">
<title>InicioComponent</title>
<polygon fill="#ffffb3" stroke="black" points="1749.99,-84.8 1636.01,-84.8 1636.01,-48.8 1749.99,-48.8 1749.99,-84.8"/>
<text text-anchor="middle" x="1693" y="-62.6" font-family="Times,serif" font-size="14.00">InicioComponent</text>
</g>
<!-- InicioComponent&#45;&gt;AppModule -->
<g id="edge7" class="edge">
<title>InicioComponent&#45;&gt;AppModule</title>
<path fill="none" stroke="black" d="M1693,-84.92C1693,-99.58 1693,-117.8 1693,-117.8 1693,-117.8 1534.74,-117.8 1534.74,-117.8"/>
<polygon fill="black" stroke="black" points="1534.74,-114.3 1524.74,-117.8 1534.74,-121.3 1534.74,-114.3"/>
</g>
<!-- LoginComponent -->
<g id="node8" class="node">
<title>LoginComponent</title>
<polygon fill="#ffffb3" stroke="black" points="1618.28,-84.8 1503.72,-84.8 1503.72,-48.8 1618.28,-48.8 1618.28,-84.8"/>
<text text-anchor="middle" x="1561" y="-62.6" font-family="Times,serif" font-size="14.00">LoginComponent</text>
</g>
<!-- LoginComponent&#45;&gt;AppModule -->
<g id="edge8" class="edge">
<title>LoginComponent&#45;&gt;AppModule</title>
<path fill="none" stroke="black" d="M1514.22,-84.91C1514.22,-84.91 1514.22,-103.79 1514.22,-103.79"/>
<polygon fill="black" stroke="black" points="1510.72,-103.79 1514.22,-113.79 1517.72,-103.79 1510.72,-103.79"/>
</g>
<!-- MateriaDeleteComponent -->
<g id="node9" class="node">
<title>MateriaDeleteComponent</title>
<polygon fill="#ffffb3" stroke="black" points="1485.89,-84.8 1324.11,-84.8 1324.11,-48.8 1485.89,-48.8 1485.89,-84.8"/>
<text text-anchor="middle" x="1405" y="-62.6" font-family="Times,serif" font-size="14.00">MateriaDeleteComponent</text>
</g>
<!-- MateriaDeleteComponent&#45;&gt;AppModule -->
<g id="edge9" class="edge">
<title>MateriaDeleteComponent&#45;&gt;AppModule</title>
<path fill="none" stroke="black" d="M1463.43,-84.91C1463.43,-84.91 1463.43,-103.79 1463.43,-103.79"/>
<polygon fill="black" stroke="black" points="1459.93,-103.79 1463.43,-113.79 1466.93,-103.79 1459.93,-103.79"/>
</g>
<!-- MateriaEditComponent -->
<g id="node10" class="node">
<title>MateriaEditComponent</title>
<polygon fill="#ffffb3" stroke="black" points="1306.2,-84.8 1157.8,-84.8 1157.8,-48.8 1306.2,-48.8 1306.2,-84.8"/>
<text text-anchor="middle" x="1232" y="-62.6" font-family="Times,serif" font-size="14.00">MateriaEditComponent</text>
</g>
<!-- MateriaEditComponent&#45;&gt;AppModule -->
<g id="edge10" class="edge">
<title>MateriaEditComponent&#45;&gt;AppModule</title>
<path fill="none" stroke="black" d="M1232,-84.92C1232,-99.58 1232,-117.8 1232,-117.8 1232,-117.8 1431.27,-117.8 1431.27,-117.8"/>
<polygon fill="black" stroke="black" points="1431.27,-121.3 1441.27,-117.8 1431.27,-114.3 1431.27,-121.3"/>
</g>
<!-- MateriasEditComponent -->
<g id="node11" class="node">
<title>MateriasEditComponent</title>
<polygon fill="#ffffb3" stroke="black" points="1139.64,-84.8 986.36,-84.8 986.36,-48.8 1139.64,-48.8 1139.64,-84.8"/>
<text text-anchor="middle" x="1063" y="-62.6" font-family="Times,serif" font-size="14.00">MateriasEditComponent</text>
</g>
<!-- MateriasEditComponent&#45;&gt;AppModule -->
<g id="edge11" class="edge">
<title>MateriasEditComponent&#45;&gt;AppModule</title>
<path fill="none" stroke="black" d="M1063,-84.81C1063,-100.85 1063,-121.8 1063,-121.8 1063,-121.8 1431.19,-121.8 1431.19,-121.8"/>
<polygon fill="black" stroke="black" points="1431.19,-125.3 1441.19,-121.8 1431.19,-118.3 1431.19,-125.3"/>
</g>
<!-- MenuComponent -->
<g id="node12" class="node">
<title>MenuComponent</title>
<polygon fill="#ffffb3" stroke="black" points="967.99,-84.8 854.01,-84.8 854.01,-48.8 967.99,-48.8 967.99,-84.8"/>
<text text-anchor="middle" x="911" y="-62.6" font-family="Times,serif" font-size="14.00">MenuComponent</text>
</g>
<!-- MenuComponent&#45;&gt;AppModule -->
<g id="edge12" class="edge">
<title>MenuComponent&#45;&gt;AppModule</title>
<path fill="none" stroke="black" d="M911,-84.82C911,-102.17 911,-125.8 911,-125.8 911,-125.8 1430.94,-125.8 1430.94,-125.8"/>
<polygon fill="black" stroke="black" points="1430.94,-129.3 1440.94,-125.8 1430.94,-122.3 1430.94,-129.3"/>
</g>
<!-- PerfilAlunoComponent -->
<g id="node13" class="node">
<title>PerfilAlunoComponent</title>
<polygon fill="#ffffb3" stroke="black" points="835.93,-84.8 688.07,-84.8 688.07,-48.8 835.93,-48.8 835.93,-84.8"/>
<text text-anchor="middle" x="762" y="-62.6" font-family="Times,serif" font-size="14.00">PerfilAlunoComponent</text>
</g>
<!-- PerfilAlunoComponent&#45;&gt;AppModule -->
<g id="edge13" class="edge">
<title>PerfilAlunoComponent&#45;&gt;AppModule</title>
<path fill="none" stroke="black" d="M762,-85.02C762,-103.63 762,-129.8 762,-129.8 762,-129.8 1431.12,-129.8 1431.12,-129.8"/>
<polygon fill="black" stroke="black" points="1431.12,-133.3 1441.12,-129.8 1431.12,-126.3 1431.12,-133.3"/>
</g>
<!-- PerfilProfComponent -->
<g id="node14" class="node">
<title>PerfilProfComponent</title>
<polygon fill="#ffffb3" stroke="black" points="670.04,-84.8 533.96,-84.8 533.96,-48.8 670.04,-48.8 670.04,-84.8"/>
<text text-anchor="middle" x="602" y="-62.6" font-family="Times,serif" font-size="14.00">PerfilProfComponent</text>
</g>
<!-- PerfilProfComponent&#45;&gt;AppModule -->
<g id="edge14" class="edge">
<title>PerfilProfComponent&#45;&gt;AppModule</title>
<path fill="none" stroke="black" d="M602,-85.11C602,-104.95 602,-133.8 602,-133.8 602,-133.8 1431.1,-133.8 1431.1,-133.8"/>
<polygon fill="black" stroke="black" points="1431.1,-137.3 1441.1,-133.8 1431.1,-130.3 1431.1,-137.3"/>
</g>
<!-- PostagemDeleteComponent -->
<g id="node15" class="node">
<title>PostagemDeleteComponent</title>
<polygon fill="#ffffb3" stroke="black" points="516.3,-84.8 343.7,-84.8 343.7,-48.8 516.3,-48.8 516.3,-84.8"/>
<text text-anchor="middle" x="430" y="-62.6" font-family="Times,serif" font-size="14.00">PostagemDeleteComponent</text>
</g>
<!-- PostagemDeleteComponent&#45;&gt;AppModule -->
<g id="edge15" class="edge">
<title>PostagemDeleteComponent&#45;&gt;AppModule</title>
<path fill="none" stroke="black" d="M430,-85.08C430,-106.12 430,-137.8 430,-137.8 430,-137.8 1431.07,-137.8 1431.07,-137.8"/>
<polygon fill="black" stroke="black" points="1431.07,-141.3 1441.07,-137.8 1431.07,-134.3 1431.07,-141.3"/>
</g>
<!-- PostagemEditComponent -->
<g id="node16" class="node">
<title>PostagemEditComponent</title>
<polygon fill="#ffffb3" stroke="black" points="325.6,-84.8 166.4,-84.8 166.4,-48.8 325.6,-48.8 325.6,-84.8"/>
<text text-anchor="middle" x="246" y="-62.6" font-family="Times,serif" font-size="14.00">PostagemEditComponent</text>
</g>
<!-- PostagemEditComponent&#45;&gt;AppModule -->
<g id="edge16" class="edge">
<title>PostagemEditComponent&#45;&gt;AppModule</title>
<path fill="none" stroke="black" d="M246,-84.96C246,-107.15 246,-141.8 246,-141.8 246,-141.8 1431.13,-141.8 1431.13,-141.8"/>
<polygon fill="black" stroke="black" points="1431.13,-145.3 1441.13,-141.8 1431.13,-138.3 1431.13,-145.3"/>
</g>
<!-- RodapeComponent -->
<g id="node17" class="node">
<title>RodapeComponent</title>
<polygon fill="#ffffb3" stroke="black" points="148.1,-84.8 23.9,-84.8 23.9,-48.8 148.1,-48.8 148.1,-84.8"/>
<text text-anchor="middle" x="86" y="-62.6" font-family="Times,serif" font-size="14.00">RodapeComponent</text>
</g>
<!-- RodapeComponent&#45;&gt;AppModule -->
<g id="edge17" class="edge">
<title>RodapeComponent&#45;&gt;AppModule</title>
<path fill="none" stroke="black" d="M86,-85.12C86,-108.46 86,-145.8 86,-145.8 86,-145.8 1431.19,-145.8 1431.19,-145.8"/>
<polygon fill="black" stroke="black" points="1431.19,-149.3 1441.19,-145.8 1431.19,-142.3 1431.19,-149.3"/>
</g>
<!-- AppComponent  -->
<g id="node20" class="node">
<title>AppComponent </title>
<polygon fill="#80b1d3" stroke="black" points="1537.44,-214.8 1428.56,-214.8 1428.56,-178.8 1537.44,-178.8 1537.44,-214.8"/>
<text text-anchor="middle" x="1483" y="-192.6" font-family="Times,serif" font-size="14.00">AppComponent </text>
</g>
<!-- AppModule&#45;&gt;AppComponent  -->
<g id="edge19" class="edge">
<title>AppModule&#45;&gt;AppComponent </title>
<path fill="none" stroke="black" stroke-dasharray="1,5" d="M1483,-149.91C1483,-149.91 1483,-168.79 1483,-168.79"/>
<polygon fill="black" stroke="black" points="1479.5,-168.79 1483,-178.79 1486.5,-168.79 1479.5,-168.79"/>
</g>
<!-- AppRoutingModule -->
<g id="node19" class="node">
<title>AppRoutingModule</title>
<polygon fill="#8dd3c7" stroke="black" points="2751.27,-84.8 2748.27,-88.8 2727.27,-88.8 2724.27,-84.8 2622.73,-84.8 2622.73,-48.8 2751.27,-48.8 2751.27,-84.8"/>
<text text-anchor="middle" x="2687" y="-62.6" font-family="Times,serif" font-size="14.00">AppRoutingModule</text>
</g>
<!-- AppRoutingModule&#45;&gt;AppModule -->
<g id="edge18" class="edge">
<title>AppRoutingModule&#45;&gt;AppModule</title>
<path fill="none" stroke="black" d="M2687,-85.12C2687,-108.46 2687,-145.8 2687,-145.8 2687,-145.8 1534.79,-145.8 1534.79,-145.8"/>
<polygon fill="black" stroke="black" points="1534.79,-142.3 1524.79,-145.8 1534.79,-149.3 1534.79,-142.3"/>
</g>
</g>
</svg>
