<?xml version="1.0" encoding="UTF-8" standalone="no"?>
<!DOCTYPE svg PUBLIC "-//W3C//DTD SVG 1.1//EN"
 "http://www.w3.org/Graphics/SVG/1.1/DTD/svg11.dtd">
<!-- Generated by graphviz version 2.47.3 (20210619.1520)
 -->
<!-- Title: dependencies Pages: 1 -->
<svg width="2783pt" height="247pt"
 viewBox="0.00 0.00 2783.00 246.80" xmlns="http://www.w3.org/2000/svg" xmlns:xlink="http://www.w3.org/1999/xlink">
<g id="graph0" class="graph" transform="scale(1 1) rotate(0) translate(4 242.8)">
<title>dependencies</title>
<polygon fill="white" stroke="transparent" points="-4,4 -4,-242.8 2779,-242.8 2779,4 -4,4"/>
<text text-anchor="middle" x="1387.5" y="-8.2" font-family="sans-serif" font-size="14.00">dependencies</text>
<g id="clust1" class="cluster">
<title>cluster_AppModule</title>
<polygon fill="none" stroke="black" stroke-dasharray="1,5" points="8,-32.8 8,-230.8 2767,-230.8 2767,-32.8 8,-32.8"/>
</g>
<g id="clust2" class="cluster">
<title>cluster_AppModule_declarations</title>
<polygon fill="none" stroke="black" points="168,-40.8 168,-92.8 2759,-92.8 2759,-40.8 168,-40.8"/>
</g>
<g id="clust20" class="cluster">
<title>cluster_AppModule_imports</title>
<polygon fill="none" stroke="black" points="16,-40.8 16,-92.8 160,-92.8 160,-40.8 16,-40.8"/>
</g>
<g id="clust22" class="cluster">
<title>cluster_AppModule_bootstrap</title>
<polygon fill="none" stroke="black" points="1408,-170.8 1408,-222.8 1532,-222.8 1532,-170.8 1408,-170.8"/>
</g>
<!-- AlertasComponent -->
<g id="node1" class="node">
<title>AlertasComponent</title>
<polygon fill="#ffffb3" stroke="black" points="2750.75,-84.8 2629.25,-84.8 2629.25,-48.8 2750.75,-48.8 2750.75,-84.8"/>
<text text-anchor="middle" x="2690" y="-62.6" font-family="Times,serif" font-size="14.00">AlertasComponent</text>
</g>
<!-- AppModule -->
<g id="node18" class="node">
<title>AppModule</title>
<polygon fill="#8dd3c7" stroke="black" points="1511.66,-149.8 1508.66,-153.8 1487.66,-153.8 1484.66,-149.8 1428.34,-149.8 1428.34,-113.8 1511.66,-113.8 1511.66,-149.8"/>
<text text-anchor="middle" x="1470" y="-127.6" font-family="Times,serif" font-size="14.00">AppModule</text>
</g>
<!-- AlertasComponent&#45;&gt;AppModule -->
<g id="edge1" class="edge">
<title>AlertasComponent&#45;&gt;AppModule</title>
<path fill="none" stroke="black" d="M2690,-85.12C2690,-108.46 2690,-145.8 2690,-145.8 2690,-145.8 1522,-145.8 1522,-145.8"/>
<polygon fill="black" stroke="black" points="1522,-142.3 1512,-145.8 1522,-149.3 1522,-142.3"/>
</g>
<!-- AppComponent -->
<g id="node2" class="node">
<title>AppComponent</title>
<polygon fill="#ffffb3" stroke="black" points="2610.94,-84.8 2505.06,-84.8 2505.06,-48.8 2610.94,-48.8 2610.94,-84.8"/>
<text text-anchor="middle" x="2558" y="-62.6" font-family="Times,serif" font-size="14.00">AppComponent</text>
</g>
<!-- AppComponent&#45;&gt;AppModule -->
<g id="edge2" class="edge">
<title>AppComponent&#45;&gt;AppModule</title>
<path fill="none" stroke="black" d="M2558,-84.96C2558,-107.15 2558,-141.8 2558,-141.8 2558,-141.8 1521.98,-141.8 1521.98,-141.8"/>
<polygon fill="black" stroke="black" points="1521.98,-138.3 1511.98,-141.8 1521.98,-145.3 1521.98,-138.3"/>
</g>
<!-- CadastroComponent -->
<g id="node3" class="node">
<title>CadastroComponent</title>
<polygon fill="#ffffb3" stroke="black" points="2487.59,-84.8 2356.41,-84.8 2356.41,-48.8 2487.59,-48.8 2487.59,-84.8"/>
<text text-anchor="middle" x="2422" y="-62.6" font-family="Times,serif" font-size="14.00">CadastroComponent</text>
</g>
<!-- CadastroComponent&#45;&gt;AppModule -->
<g id="edge3" class="edge">
<title>CadastroComponent&#45;&gt;AppModule</title>
<path fill="none" stroke="black" d="M2422,-85.08C2422,-106.12 2422,-137.8 2422,-137.8 2422,-137.8 1521.83,-137.8 1521.83,-137.8"/>
<polygon fill="black" stroke="black" points="1521.83,-134.3 1511.83,-137.8 1521.83,-141.3 1521.83,-134.3"/>
</g>
<!-- ChatAlunoComponent -->
<g id="node4" class="node">
<title>ChatAlunoComponent</title>
<polygon fill="#ffffb3" stroke="black" points="2338.27,-84.8 2195.73,-84.8 2195.73,-48.8 2338.27,-48.8 2338.27,-84.8"/>
<text text-anchor="middle" x="2267" y="-62.6" font-family="Times,serif" font-size="14.00">ChatAlunoComponent</text>
</g>
<!-- ChatAlunoComponent&#45;&gt;AppModule -->
<g id="edge4" class="edge">
<title>ChatAlunoComponent&#45;&gt;AppModule</title>
<path fill="none" stroke="black" d="M2267,-85.11C2267,-104.95 2267,-133.8 2267,-133.8 2267,-133.8 1521.73,-133.8 1521.73,-133.8"/>
<polygon fill="black" stroke="black" points="1521.73,-130.3 1511.73,-133.8 1521.73,-137.3 1521.73,-130.3"/>
</g>
<!-- ChatProfComponent -->
<g id="node5" class="node">
<title>ChatProfComponent</title>
<polygon fill="#ffffb3" stroke="black" points="2177.88,-84.8 2046.12,-84.8 2046.12,-48.8 2177.88,-48.8 2177.88,-84.8"/>
<text text-anchor="middle" x="2112" y="-62.6" font-family="Times,serif" font-size="14.00">ChatProfComponent</text>
</g>
<!-- ChatProfComponent&#45;&gt;AppModule -->
<g id="edge5" class="edge">
<title>ChatProfComponent&#45;&gt;AppModule</title>
<path fill="none" stroke="black" d="M2112,-85.02C2112,-103.63 2112,-129.8 2112,-129.8 2112,-129.8 1522.12,-129.8 1522.12,-129.8"/>
<polygon fill="black" stroke="black" points="1522.12,-126.3 1512.12,-129.8 1522.12,-133.3 1522.12,-126.3"/>
</g>
<!-- FeedComponent -->
<g id="node6" class="node">
<title>FeedComponent</title>
<polygon fill="#ffffb3" stroke="black" points="2028.05,-84.8 1919.95,-84.8 1919.95,-48.8 2028.05,-48.8 2028.05,-84.8"/>
<text text-anchor="middle" x="1974" y="-62.6" font-family="Times,serif" font-size="14.00">FeedComponent</text>
</g>
<!-- FeedComponent&#45;&gt;AppModule -->
<g id="edge6" class="edge">
<title>FeedComponent&#45;&gt;AppModule</title>
<path fill="none" stroke="black" d="M1974,-84.82C1974,-102.17 1974,-125.8 1974,-125.8 1974,-125.8 1521.67,-125.8 1521.67,-125.8"/>
<polygon fill="black" stroke="black" points="1521.67,-122.3 1511.67,-125.8 1521.67,-129.3 1521.67,-122.3"/>
</g>
<!-- InicioComponent -->
<g id="node7" class="node">
<title>InicioComponent</title>
<polygon fill="#ffffb3" stroke="black" points="1901.99,-84.8 1788.01,-84.8 1788.01,-48.8 1901.99,-48.8 1901.99,-84.8"/>
<text text-anchor="middle" x="1845" y="-62.6" font-family="Times,serif" font-size="14.00">InicioComponent</text>
</g>
<!-- InicioComponent&#45;&gt;AppModule -->
<g id="edge7" class="edge">
<title>InicioComponent&#45;&gt;AppModule</title>
<path fill="none" stroke="black" d="M1845,-84.81C1845,-100.85 1845,-121.8 1845,-121.8 1845,-121.8 1521.93,-121.8 1521.93,-121.8"/>
<polygon fill="black" stroke="black" points="1521.93,-118.3 1511.93,-121.8 1521.93,-125.3 1521.93,-118.3"/>
</g>
<!-- LoginComponent -->
<g id="node8" class="node">
<title>LoginComponent</title>
<polygon fill="#ffffb3" stroke="black" points="1770.28,-84.8 1655.72,-84.8 1655.72,-48.8 1770.28,-48.8 1770.28,-84.8"/>
<text text-anchor="middle" x="1713" y="-62.6" font-family="Times,serif" font-size="14.00">LoginComponent</text>
</g>
<!-- LoginComponent&#45;&gt;AppModule -->
<g id="edge8" class="edge">
<title>LoginComponent&#45;&gt;AppModule</title>
<path fill="none" stroke="black" d="M1713,-84.92C1713,-99.58 1713,-117.8 1713,-117.8 1713,-117.8 1521.77,-117.8 1521.77,-117.8"/>
<polygon fill="black" stroke="black" points="1521.77,-114.3 1511.77,-117.8 1521.77,-121.3 1521.77,-114.3"/>
</g>
<!-- MateriaDeleteComponent -->
<g id="node9" class="node">
<title>MateriaDeleteComponent</title>
<polygon fill="#ffffb3" stroke="black" points="1637.89,-84.8 1476.11,-84.8 1476.11,-48.8 1637.89,-48.8 1637.89,-84.8"/>
<text text-anchor="middle" x="1557" y="-62.6" font-family="Times,serif" font-size="14.00">MateriaDeleteComponent</text>
</g>
<!-- MateriaDeleteComponent&#45;&gt;AppModule -->
<g id="edge9" class="edge">
<title>MateriaDeleteComponent&#45;&gt;AppModule</title>
<path fill="none" stroke="black" d="M1494.07,-84.91C1494.07,-84.91 1494.07,-103.79 1494.07,-103.79"/>
<polygon fill="black" stroke="black" points="1490.57,-103.79 1494.07,-113.79 1497.57,-103.79 1490.57,-103.79"/>
</g>
<!-- MateriaEditComponent -->
<g id="node10" class="node">
<title>MateriaEditComponent</title>
<polygon fill="#ffffb3" stroke="black" points="1458.2,-84.8 1309.8,-84.8 1309.8,-48.8 1458.2,-48.8 1458.2,-84.8"/>
<text text-anchor="middle" x="1384" y="-62.6" font-family="Times,serif" font-size="14.00">MateriaEditComponent</text>
</g>
<!-- MateriaEditComponent&#45;&gt;AppModule -->
<g id="edge10" class="edge">
<title>MateriaEditComponent&#45;&gt;AppModule</title>
<path fill="none" stroke="black" d="M1443.13,-84.91C1443.13,-84.91 1443.13,-103.79 1443.13,-103.79"/>
<polygon fill="black" stroke="black" points="1439.64,-103.79 1443.13,-113.79 1446.64,-103.79 1439.64,-103.79"/>
</g>
<!-- MateriasEditComponent -->
<g id="node11" class="node">
<title>MateriasEditComponent</title>
<polygon fill="#ffffb3" stroke="black" points="1291.64,-84.8 1138.36,-84.8 1138.36,-48.8 1291.64,-48.8 1291.64,-84.8"/>
<text text-anchor="middle" x="1215" y="-62.6" font-family="Times,serif" font-size="14.00">MateriasEditComponent</text>
</g>
<!-- MateriasEditComponent&#45;&gt;AppModule -->
<g id="edge11" class="edge">
<title>MateriasEditComponent&#45;&gt;AppModule</title>
<path fill="none" stroke="black" d="M1215,-84.92C1215,-99.58 1215,-117.8 1215,-117.8 1215,-117.8 1418.18,-117.8 1418.18,-117.8"/>
<polygon fill="black" stroke="black" points="1418.18,-121.3 1428.18,-117.8 1418.18,-114.3 1418.18,-121.3"/>
</g>
<!-- MenuComponent -->
<g id="node12" class="node">
<title>MenuComponent</title>
<polygon fill="#ffffb3" stroke="black" points="1119.99,-84.8 1006.01,-84.8 1006.01,-48.8 1119.99,-48.8 1119.99,-84.8"/>
<text text-anchor="middle" x="1063" y="-62.6" font-family="Times,serif" font-size="14.00">MenuComponent</text>
</g>
<!-- MenuComponent&#45;&gt;AppModule -->
<g id="edge12" class="edge">
<title>MenuComponent&#45;&gt;AppModule</title>
<path fill="none" stroke="black" d="M1063,-84.81C1063,-100.85 1063,-121.8 1063,-121.8 1063,-121.8 1417.98,-121.8 1417.98,-121.8"/>
<polygon fill="black" stroke="black" points="1417.98,-125.3 1427.98,-121.8 1417.98,-118.3 1417.98,-125.3"/>
</g>
<!-- PerfilAlunoComponent -->
<g id="node13" class="node">
<title>PerfilAlunoComponent</title>
<polygon fill="#ffffb3" stroke="black" points="987.93,-84.8 840.07,-84.8 840.07,-48.8 987.93,-48.8 987.93,-84.8"/>
<text text-anchor="middle" x="914" y="-62.6" font-family="Times,serif" font-size="14.00">PerfilAlunoComponent</text>
</g>
<!-- PerfilAlunoComponent&#45;&gt;AppModule -->
<g id="edge13" class="edge">
<title>PerfilAlunoComponent&#45;&gt;AppModule</title>
<path fill="none" stroke="black" d="M914,-84.82C914,-102.17 914,-125.8 914,-125.8 914,-125.8 1418.21,-125.8 1418.21,-125.8"/>
<polygon fill="black" stroke="black" points="1418.21,-129.3 1428.21,-125.8 1418.21,-122.3 1418.21,-129.3"/>
</g>
<!-- PerfilProfComponent -->
<g id="node14" class="node">
<title>PerfilProfComponent</title>
<polygon fill="#ffffb3" stroke="black" points="822.04,-84.8 685.96,-84.8 685.96,-48.8 822.04,-48.8 822.04,-84.8"/>
<text text-anchor="middle" x="754" y="-62.6" font-family="Times,serif" font-size="14.00">PerfilProfComponent</text>
</g>
<!-- PerfilProfComponent&#45;&gt;AppModule -->
<g id="edge14" class="edge">
<title>PerfilProfComponent&#45;&gt;AppModule</title>
<path fill="none" stroke="black" d="M754,-85.02C754,-103.63 754,-129.8 754,-129.8 754,-129.8 1418.15,-129.8 1418.15,-129.8"/>
<polygon fill="black" stroke="black" points="1418.15,-133.3 1428.15,-129.8 1418.15,-126.3 1418.15,-133.3"/>
</g>
<!-- PostagemDeleteComponent -->
<g id="node15" class="node">
<title>PostagemDeleteComponent</title>
<polygon fill="#ffffb3" stroke="black" points="668.3,-84.8 495.7,-84.8 495.7,-48.8 668.3,-48.8 668.3,-84.8"/>
<text text-anchor="middle" x="582" y="-62.6" font-family="Times,serif" font-size="14.00">PostagemDeleteComponent</text>
</g>
<!-- PostagemDeleteComponent&#45;&gt;AppModule -->
<g id="edge15" class="edge">
<title>PostagemDeleteComponent&#45;&gt;AppModule</title>
<path fill="none" stroke="black" d="M582,-85.11C582,-104.95 582,-133.8 582,-133.8 582,-133.8 1418.06,-133.8 1418.06,-133.8"/>
<polygon fill="black" stroke="black" points="1418.06,-137.3 1428.06,-133.8 1418.06,-130.3 1418.06,-137.3"/>
</g>
<!-- PostagemEditComponent -->
<g id="node16" class="node">
<title>PostagemEditComponent</title>
<polygon fill="#ffffb3" stroke="black" points="477.6,-84.8 318.4,-84.8 318.4,-48.8 477.6,-48.8 477.6,-84.8"/>
<text text-anchor="middle" x="398" y="-62.6" font-family="Times,serif" font-size="14.00">PostagemEditComponent</text>
</g>
<!-- PostagemEditComponent&#45;&gt;AppModule -->
<g id="edge16" class="edge">
<title>PostagemEditComponent&#45;&gt;AppModule</title>
<path fill="none" stroke="black" d="M398,-85.08C398,-106.12 398,-137.8 398,-137.8 398,-137.8 1418.31,-137.8 1418.31,-137.8"/>
<polygon fill="black" stroke="black" points="1418.31,-141.3 1428.31,-137.8 1418.31,-134.3 1418.31,-141.3"/>
</g>
<!-- RodapeComponent -->
<g id="node17" class="node">
<title>RodapeComponent</title>
<polygon fill="#ffffb3" stroke="black" points="300.1,-84.8 175.9,-84.8 175.9,-48.8 300.1,-48.8 300.1,-84.8"/>
<text text-anchor="middle" x="238" y="-62.6" font-family="Times,serif" font-size="14.00">RodapeComponent</text>
</g>
<!-- RodapeComponent&#45;&gt;AppModule -->
<g id="edge17" class="edge">
<title>RodapeComponent&#45;&gt;AppModule</title>
<path fill="none" stroke="black" d="M238,-84.96C238,-107.15 238,-141.8 238,-141.8 238,-141.8 1418.3,-141.8 1418.3,-141.8"/>
<polygon fill="black" stroke="black" points="1418.3,-145.3 1428.3,-141.8 1418.3,-138.3 1418.3,-145.3"/>
</g>
<!-- AppComponent  -->
<g id="node20" class="node">
<title>AppComponent </title>
<polygon fill="#80b1d3" stroke="black" points="1524.44,-214.8 1415.56,-214.8 1415.56,-178.8 1524.44,-178.8 1524.44,-214.8"/>
<text text-anchor="middle" x="1470" y="-192.6" font-family="Times,serif" font-size="14.00">AppComponent </text>
</g>
<!-- AppModule&#45;&gt;AppComponent  -->
<g id="edge19" class="edge">
<title>AppModule&#45;&gt;AppComponent </title>
<path fill="none" stroke="black" stroke-dasharray="1,5" d="M1470,-149.91C1470,-149.91 1470,-168.79 1470,-168.79"/>
<polygon fill="black" stroke="black" points="1466.5,-168.79 1470,-178.79 1473.5,-168.79 1466.5,-168.79"/>
</g>
<!-- AppRoutingModule -->
<g id="node19" class="node">
<title>AppRoutingModule</title>
<polygon fill="#8dd3c7" stroke="black" points="152.27,-84.8 149.27,-88.8 128.27,-88.8 125.27,-84.8 23.73,-84.8 23.73,-48.8 152.27,-48.8 152.27,-84.8"/>
<text text-anchor="middle" x="88" y="-62.6" font-family="Times,serif" font-size="14.00">AppRoutingModule</text>
</g>
<!-- AppRoutingModule&#45;&gt;AppModule -->
<g id="edge18" class="edge">
<title>AppRoutingModule&#45;&gt;AppModule</title>
<path fill="none" stroke="black" d="M88,-85.12C88,-108.46 88,-145.8 88,-145.8 88,-145.8 1418.26,-145.8 1418.26,-145.8"/>
<polygon fill="black" stroke="black" points="1418.26,-149.3 1428.26,-145.8 1418.26,-142.3 1418.26,-149.3"/>
</g>
</g>
</svg>
